<?xml version="1.0" encoding="UTF-8"?>
<svg id="Layer_1" xmlns="http://www.w3.org/2000/svg" version="1.1" xmlns:xlink="http://www.w3.org/1999/xlink" viewBox="0 0 1000 1000">
  <!-- Generator: Adobe Illustrator 29.6.1, SVG Export Plug-In . SVG Version: 2.1.1 Build 9)  -->
  <defs>
    <style>
      .st0 {
        fill: #e2ae1a;
      }

      .st1 {
        fill: url(#linear-gradient);
      }
    </style>
    <linearGradient id="linear-gradient" x1="500" y1="812.5" x2="500" y2="187.5" gradientUnits="userSpaceOnUse">
      <stop offset="0" stop-color="#008d64"/>
      <stop offset="1" stop-color="#09b573"/>
    </linearGradient>
  </defs>
  <path class="st1" d="M750.08,562.42v69.06c0,41.64-22.09,80.86-57.69,102.37l-129.88,78.65v-73.11l97.49-59.02c17.01-10.29,27.55-29.01,27.55-48.89v-69.06h62.52ZM339.99,680.37c-16.96-10.29-27.55-29.01-27.55-48.89v-69.06h-62.52v69.06c0,41.64,22.13,80.86,57.73,102.37l129.88,78.65v-73.11l-97.53-59.02ZM725.26,399.9c-30.41-48.97-71.56-57.1-142.17-116.41-22.18-18.71-52.99-48.85-83.09-95.99-30.1,47.14-60.95,77.28-83.13,95.99-70.61,59.31-111.76,67.44-142.17,116.41-12.83,20.72-25.15,51.98-24.75,99.99h62.47c1.86-15.3,3.12-27.76,5.85-37.18,3.21-11.5,5.7-19.92,11.45-30.8,22.61-42.39,58.85-50.18,107.8-84.49,16.04-11.3,38.34-28.72,62.49-54.93,24.04,26.22,46.45,43.64,62.49,54.93,48.95,34.3,85.19,42.1,107.8,84.49,5.7,10.88,8.12,19.3,11.45,30.8,2.69,9.42,3.98,21.88,5.8,37.18h62.51c.36-48.02-11.92-79.28-24.79-99.99Z"/>
  <path class="st0" d="M472.93,440.31c-31.89,61.84-4.99,127.53,62.39,133.02,24.39,3.02,43.5-8.28,61.92-27.7,3.34,15.24,1.07,32.12-7.68,47.67-42.17,70.17-159.48,46.14-182.41-30.07-19.88-49.93,13.18-119.02,65.79-122.91h0Z"/>
</svg>