<svg width="501" height="313" viewBox="0 0 501 313" fill="none" xmlns="http://www.w3.org/2000/svg">
<path d="M475.32 212.4C444.91 163.43 403.76 155.3 333.15 95.99C310.97 77.28 280.159 47.14 250.059 0C219.959 47.14 189.109 77.28 166.929 95.99C96.3195 155.3 55.1695 163.43 24.7595 212.4C11.9295 233.12 -0.390518 264.38 0.00948196 312.39H62.4795C64.3395 297.09 65.5995 284.63 68.3295 275.21C71.5395 263.71 74.0295 255.29 79.7795 244.41C102.389 202.02 138.629 194.23 187.579 159.92C203.619 148.62 225.92 131.2 250.07 104.99C274.11 131.21 296.52 148.63 312.56 159.92C361.51 194.22 397.749 202.02 420.359 244.41C426.059 255.29 428.48 263.71 431.81 275.21C434.5 284.63 435.789 297.09 437.609 312.39H500.12C500.48 264.37 488.2 233.11 475.33 212.4H475.32Z" fill="url(#paint0_linear_2004_3)"/>
<defs>
<linearGradient id="paint0_linear_2004_3" x1="250.06" y1="625" x2="250.06" y2="0" gradientUnits="userSpaceOnUse">
<stop stop-color="#008D64"/>
<stop offset="1" stop-color="#09B573"/>
</linearGradient>
</defs>
</svg>
