<svg width="30" height="30" viewBox="0 0 30 30" fill="none" xmlns="http://www.w3.org/2000/svg">
<path d="M4 29H26C27.6543 29 29 27.6543 29 26V8V6V5C29 3.89746 28.1025 3 27 3H26H24V2C24 1.44727 23.5527 1 23 1C22.4473 1 22 1.44727 22 2V3H8V2C8 1.44727 7.55273 1 7 1C6.44727 1 6 1.44727 6 2V3H4H3C1.89746 3 1 3.89746 1 5V6V8V26C1 27.6543 2.3457 29 4 29ZM3 6C3 5.44824 3.44824 5 4 5H6V6C6 6.55273 6.44727 7 7 7C7.55273 7 8 6.55273 8 6V5H22V6C22 6.55273 22.4473 7 23 7C23.5527 7 24 6.55273 24 6V5H26C26.5518 5 27 5.44824 27 6V9H3V6ZM3 11H27V26C27 26.5518 26.5518 27 26 27H4C3.44824 27 3 26.5518 3 26V11Z" />
<path d="M7.5 15H6.5C6.22386 15 6 14.7761 6 14.5V13.5C6 13.2239 6.22386 13 6.5 13H7.5C7.77614 13 8 13.2239 8 13.5V14.5C8 14.7761 7.77614 15 7.5 15Z" />
<path d="M13.1665 15H12.1665C11.8904 15 11.6665 14.7761 11.6665 14.5V13.5C11.6665 13.2239 11.8904 13 12.1665 13H13.1665C13.4426 13 13.6665 13.2239 13.6665 13.5V14.5C13.6665 14.7761 13.4426 15 13.1665 15Z" />
<path d="M18.8335 15H17.8335C17.5574 15 17.3335 14.7761 17.3335 14.5V13.5C17.3335 13.2239 17.5574 13 17.8335 13H18.8335C19.1096 13 19.3335 13.2239 19.3335 13.5V14.5C19.3335 14.7761 19.1096 15 18.8335 15Z" />
<path d="M24.5 15H23.5C23.2239 15 23 14.7761 23 14.5V13.5C23 13.2239 23.2239 13 23.5 13H24.5C24.7761 13 25 13.2239 25 13.5V14.5C25 14.7761 24.7761 15 24.5 15Z" />
<path d="M7.5 20H6.5C6.22386 20 6 19.7761 6 19.5V18.5C6 18.2239 6.22386 18 6.5 18H7.5C7.77614 18 8 18.2239 8 18.5V19.5C8 19.7761 7.77614 20 7.5 20Z" />
<path d="M13.1665 20H12.1665C11.8904 20 11.6665 19.7761 11.6665 19.5V18.5C11.6665 18.2239 11.8904 18 12.1665 18H13.1665C13.4426 18 13.6665 18.2239 13.6665 18.5V19.5C13.6665 19.7761 13.4426 20 13.1665 20Z" />
<path d="M18.8335 20H17.8335C17.5574 20 17.3335 19.7761 17.3335 19.5V18.5C17.3335 18.2239 17.5574 18 17.8335 18H18.8335C19.1096 18 19.3335 18.2239 19.3335 18.5V19.5C19.3335 19.7761 19.1096 20 18.8335 20Z" />
<path d="M24.5 20H23.5C23.2239 20 23 19.7761 23 19.5V18.5C23 18.2239 23.2239 18 23.5 18H24.5C24.7761 18 25 18.2239 25 18.5V19.5C25 19.7761 24.7761 20 24.5 20Z" />
<path d="M7.5 25H6.5C6.22386 25 6 24.7761 6 24.5V23.5C6 23.2239 6.22386 23 6.5 23H7.5C7.77614 23 8 23.2239 8 23.5V24.5C8 24.7761 7.77614 25 7.5 25Z" />
<path d="M13.1665 25H12.1665C11.8904 25 11.6665 24.7761 11.6665 24.5V23.5C11.6665 23.2239 11.8904 23 12.1665 23H13.1665C13.4426 23 13.6665 23.2239 13.6665 23.5V24.5C13.6665 24.7761 13.4426 25 13.1665 25Z" />
<path d="M18.8335 25H17.8335C17.5574 25 17.3335 24.7761 17.3335 24.5V23.5C17.3335 23.2239 17.5574 23 17.8335 23H18.8335C19.1096 23 19.3335 23.2239 19.3335 23.5V24.5C19.3335 24.7761 19.1096 25 18.8335 25Z" />
<path d="M24.5 25H23.5C23.2239 25 23 24.7761 23 24.5V23.5C23 23.2239 23.2239 23 23.5 23H24.5C24.7761 23 25 23.2239 25 23.5V24.5C25 24.7761 24.7761 25 24.5 25Z" />
</svg>
