<svg width="33" height="33" viewBox="0 0 33 33" fill="none" xmlns="http://www.w3.org/2000/svg">
<path d="M16.042 1C7.748 1 1 7.748 1 16.042C1 24.336 7.748 31.084 16.042 31.084C24.336 31.084 31.084 24.336 31.084 16.042C31.084 7.748 24.336 1 16.042 1ZM16.042 28.084C9.402 28.084 4 22.682 4 16.042C4 9.402 9.402 4 16.042 4C22.682 4 28.084 9.402 28.084 16.042C28.084 22.682 22.682 28.084 16.042 28.084ZM20.935 7.614L14.791 11.635C13.411 12.539 11.912 14.577 11.461 16.164L9.457 23.227C9.007 24.814 9.768 25.373 11.148 24.47L17.291 20.449C18.671 19.546 20.17 17.508 20.62 15.92L22.626 8.858C23.077 7.27 22.315 6.711 20.935 7.614ZM18.19 17.622C17.317 18.809 15.648 19.062 14.462 18.19C13.275 17.318 13.02 15.649 13.892 14.462C14.765 13.274 16.434 13.02 17.621 13.892C18.808 14.766 19.063 16.436 18.19 17.622Z" />
</svg>
