<svg width="475" height="432" viewBox="0 0 475 432" fill="none" xmlns="http://www.w3.org/2000/svg">
<path  d="M35.4326 223.458C26.7926 231.318 13.3726 230.688 5.50263 222.048C-2.35737 213.408 -1.71737 199.988 6.91263 192.128L203.793 12.8775C222.643 -4.2925 251.543 -4.2925 270.393 12.8775L354.393 89.3575V62.6075C354.393 55.2175 360.443 49.1675 367.833 49.1675H398.233C405.623 49.1675 411.673 55.2175 411.673 62.6075V141.507L467.273 192.128C475.903 199.988 476.543 213.408 468.683 222.048C460.813 230.688 447.393 231.318 438.753 223.458C370.663 161.458 311.733 107.807 241.873 44.2075C239.193 41.7575 234.993 41.7575 232.313 44.2075L35.4326 223.458Z" />
<path  d="M410.253 230.978V402.958C410.253 418.538 397.553 431.248 381.973 431.248H286.593V287.348H187.593V431.248H92.2126C76.6326 431.248 63.9326 418.538 63.9326 402.958V230.978L237.093 73.3276L410.253 230.978Z" />
</svg>
