<svg width="65" height="82" viewBox="0 0 65 82" fill="none" xmlns="http://www.w3.org/2000/svg">
<path d="M32.5005 39.5818C37.7505 39.5818 42.7815 37.4998 46.4965 33.7849C50.2074 30.074 52.2934 25.0388 52.2934 19.7929C52.2934 14.5429 50.2075 9.5079 46.4965 5.7969C42.7817 2.086 37.7504 0 32.5005 0C27.2506 0 22.2195 2.0859 18.5045 5.7969C14.7936 9.5078 12.7076 14.543 12.7076 19.7929C12.7076 25.039 14.7935 30.0739 18.5045 33.7849C22.2193 37.4997 27.2506 39.5818 32.5005 39.5818ZM32.5005 6.2498C37.9771 6.2498 42.9145 9.5506 45.0125 14.6092C47.1063 19.6678 45.95 25.4962 42.075 29.3672C38.2039 33.2383 32.3797 34.3984 27.317 32.3008C22.2584 30.207 18.9576 25.2696 18.9576 19.7928C18.981 12.324 25.0317 6.2728 32.5005 6.2498ZM35.3755 41.6678H29.6255C21.77 41.6756 14.2425 44.8006 8.6875 50.3553C3.1367 55.91 0.0117 63.4373 0 71.2933C0.003906 74.4144 2.1367 77.1292 5.168 77.8753C14.1055 80.1214 23.285 81.2542 32.5 81.2503C41.7148 81.2542 50.895 80.1214 59.832 77.8753C62.8632 77.1292 64.9961 74.4144 65 71.2933C64.9883 63.4378 61.8633 55.9103 56.3125 50.3553C50.7578 44.8006 43.2315 41.6756 35.3755 41.6678ZM58.3325 71.8319C41.3675 76.0428 23.6335 76.0428 6.6685 71.8319C6.42631 71.7616 6.25834 71.5428 6.25053 71.2928C6.26225 65.0936 8.72713 59.1558 13.1099 54.7728C17.4888 50.3939 23.4299 47.9251 29.6259 47.9173H35.3759C41.5712 47.9251 47.5129 50.3939 51.8919 54.7728C56.2747 59.1556 58.7396 65.0928 58.7513 71.2928C58.7435 71.5428 58.5747 71.7616 58.3325 71.8319Z" />
</svg>
